<svg width="40" height="40" viewBox="0 0 40 40" fill="none" xmlns="http://www.w3.org/2000/svg">
<path d="M18.02 34.3599H19.34V35.6799H18.02V34.3599Z" fill="black"/>
<path d="M19.34 34.3599H20.66V35.6799H19.34V34.3599Z" fill="black"/>
<path d="M20.66 33.0399H21.98V34.3599H20.66V33.0399Z" fill="black"/>
<path d="M20.66 34.3599H21.98V35.6799H20.66V34.3599Z" fill="black"/>
<path d="M21.98 33.0399H23.3V34.3599H21.98V33.0399Z" fill="black"/>
<path d="M23.3 31.7199H24.62V33.0399L23.3 33.0399V31.7199Z" fill="black"/>
<path d="M24.62 31.7199H25.94V33.0399H24.62V31.7199Z" fill="black"/>
<path d="M24.62 30.3999H25.94V31.7199H24.62L24.62 30.3999Z" fill="black"/>
<path d="M25.94 30.3999H27.26V31.7199H25.94V30.3999Z" fill="black"/>
<path d="M25.94 29.0799H27.26V30.3999H25.94V29.0799Z" fill="black"/>
<path d="M27.26 29.0799H28.58V30.3999H27.26V29.0799Z" fill="black"/>
<path d="M27.26 27.7599H28.58V29.0799H27.26V27.7599Z" fill="black"/>
<path d="M28.58 27.7599H29.9V29.0799H28.58V27.7599Z" fill="black"/>
<path d="M28.58 26.4399H29.9V27.7599H28.58V26.4399Z" fill="black"/>
<path d="M29.9 26.4399H31.22V27.7599H29.9V26.4399Z" fill="black"/>
<path d="M29.9 25.1199H31.22V26.4399H29.9V25.1199Z" fill="black"/>
<path d="M31.22 25.1199H32.54V26.4399H31.22V25.1199Z" fill="black"/>
<path d="M31.22 23.7999H32.54V25.1199H31.22V23.7999Z" fill="black"/>
<path d="M32.54 22.4799H33.86V23.7999H32.54L32.54 22.4799Z" fill="black"/>
<path d="M32.54 23.7999H33.86V25.1199L32.54 25.1199V23.7999Z" fill="black"/>
<path d="M33.86 19.8399H35.18V21.1599H33.86V19.8399Z" fill="black"/>
<path d="M33.86 21.1599H35.18V22.4799H33.86V21.1599Z" fill="black"/>
<path d="M35.18 17.1999H36.5V18.5199H35.18V17.1999Z" fill="black"/>
<path d="M35.18 18.5199H36.5V19.8399H35.18V18.5199Z" fill="black"/>
<path d="M35.18 15.8799H36.5V17.1999H35.18V15.8799Z" fill="black"/>
<path d="M35.18 14.5599H36.5V15.8799H35.18V14.5599Z" fill="black"/>
<path d="M35.18 13.2399H36.5V14.5599H35.18V13.2399Z" fill="black"/>
<path d="M33.86 10.5999H35.18V11.9199H33.86V10.5999Z" fill="black"/>
<path d="M33.86 9.27995H35.18V10.5999H33.86V9.27995Z" fill="black"/>
<path d="M32.54 7.95995H33.86V9.27995H32.54V7.95995Z" fill="black"/>
<path d="M31.22 6.63995H32.54L32.54 7.95995H31.22V6.63995Z" fill="black"/>
<path d="M29.9 6.63995H31.22V7.95995H29.9V6.63995Z" fill="black"/>
<path d="M29.9 5.31995H31.22V6.63995H29.9V5.31995Z" fill="black"/>
<path d="M28.58 5.31995H29.9V6.63995L28.58 6.63995V5.31995Z" fill="black"/>
<path d="M27.26 5.31995H28.58V6.63995H27.26V5.31995Z" fill="black"/>
<path d="M25.94 5.31995H27.26V6.63995H25.94V5.31995Z" fill="black"/>
<path d="M24.62 5.31995H25.94V6.63995H24.62V5.31995Z" fill="black"/>
<path d="M23.3 5.31995H24.62V6.63995H23.3V5.31995Z" fill="black"/>
<path d="M23.3 6.63995H24.62L24.62 7.95995H23.3V6.63995Z" fill="black"/>
<path d="M21.98 6.63995L23.3 6.63995V7.95995H21.98V6.63995Z" fill="black"/>
<path d="M20.66 7.95995H21.98V9.27995H20.66V7.95995Z" fill="black"/>
<path d="M19.34 9.27995H20.66V10.5999H19.34V9.27995Z" fill="black"/>
<path d="M18.02 7.95995H19.34V9.27995H18.02V7.95995Z" fill="black"/>
<path d="M16.7 6.63995H18.02L18.02 7.95995H16.7V6.63995Z" fill="black"/>
<path d="M15.38 6.63995H16.7V7.95995H15.38V6.63995Z" fill="black"/>
<path d="M15.38 5.31995H16.7V6.63995H15.38V5.31995Z" fill="black"/>
<path d="M14.06 5.31995H15.38V6.63995L14.06 6.63995V5.31995Z" fill="black"/>
<path d="M12.74 5.31995H14.06V6.63995H12.74V5.31995Z" fill="black"/>
<path d="M11.42 5.31995H12.74V6.63995H11.42V5.31995Z" fill="black"/>
<path d="M10.1 5.31995H11.42V6.63995H10.1V5.31995Z" fill="black"/>
<path d="M8.78 6.63995L10.1 6.63995L10.1 7.95995H8.78V6.63995Z" fill="black"/>
<path d="M7.46 6.63995H8.78V7.95995H7.46V6.63995Z" fill="black"/>
<path d="M6.14 7.95995H7.46V9.27995H6.14V7.95995Z" fill="black"/>
<path d="M4.82 9.27995H6.14V10.5999H4.82V9.27995Z" fill="black"/>
<path d="M4.82 10.5999H6.14V11.9199H4.82V10.5999Z" fill="black"/>
<path d="M3.5 11.9199H4.82V13.2399H3.5V11.9199Z" fill="black"/>
<path d="M3.5 13.2399H4.82V14.5599H3.5V13.2399Z" fill="black"/>
<path d="M3.5 14.5599H4.82V15.8799H3.5V14.5599Z" fill="black"/>
<path d="M3.5 15.8799H4.82V17.1999H3.5V15.8799Z" fill="black"/>
<path d="M3.5 17.1999H4.82V18.5199H3.5V17.1999Z" fill="black"/>
<path d="M3.5 18.5199H4.82V19.8399H3.5V18.5199Z" fill="black"/>
<path d="M4.82 19.8399H6.14V21.1599H4.82V19.8399Z" fill="black"/>
<path d="M4.82 21.1599H6.14V22.4799H4.82V21.1599Z" fill="black"/>
<path d="M6.14 22.4799H7.46V23.7999H6.14V22.4799Z" fill="black"/>
<path d="M7.46 23.7999H8.78V25.1199H7.46V23.7999Z" fill="black"/>
<path d="M8.78 25.1199L10.1 25.1199V26.4399H8.78V25.1199Z" fill="black"/>
<path d="M10.1 26.4399H11.42V27.7599H10.1L10.1 26.4399Z" fill="black"/>
<path d="M11.42 27.7599H12.74V29.0799H11.42V27.7599Z" fill="black"/>
<path d="M12.74 29.0799H14.06V30.3999H12.74V29.0799Z" fill="black"/>
<path d="M14.06 30.3999H15.38V31.7199H14.06L14.06 30.3999Z" fill="black"/>
<path d="M6.14 23.7999H7.46V25.1199H6.14V23.7999Z" fill="black"/>
<path d="M7.46 25.1199H8.78V26.4399H7.46V25.1199Z" fill="black"/>
<path d="M8.78 26.4399H10.1L10.1 27.7599H8.78V26.4399Z" fill="black"/>
<path d="M10.1 27.7599H11.42V29.0799H10.1V27.7599Z" fill="black"/>
<path d="M11.42 29.0799H12.74V30.3999H11.42V29.0799Z" fill="black"/>
<path d="M12.74 30.3999H14.06L14.06 31.7199H12.74V30.3999Z" fill="black"/>
<path d="M14.06 31.7199H15.38V33.0399H14.06V31.7199Z" fill="black"/>
<path d="M15.38 31.7199H16.7V33.0399H15.38V31.7199Z" fill="black"/>
<path d="M16.7 33.0399L18.02 33.0399L18.02 34.3599H16.7V33.0399Z" fill="black"/>
<path d="M18.02 33.0399H19.34V34.3599H18.02L18.02 33.0399Z" fill="black"/>
<path d="M35.18 11.9199H36.5V13.2399H35.18V11.9199Z" fill="black"/>
<path d="M19.34 33.0399H20.66V34.3599H19.34V33.0399Z" fill="#D60018"/>
<path d="M19.34 31.7199H20.66V33.0399H19.34V31.7199Z" fill="#D60018"/>
<path d="M20.66 31.7199H21.98V33.0399L20.66 33.0399V31.7199Z" fill="#D60018"/>
<path d="M23.3 25.1199H29.9V26.4399H23.3V25.1199Z" fill="#D60018"/>
<path d="M25.94 23.7999H31.22V25.1199H25.94V23.7999Z" fill="#D60018"/>
<path d="M27.26 22.4799H32.54V23.7999H27.26V22.4799Z" fill="#D60018"/>
<path d="M28.58 21.1599H33.86V22.4799H28.58V21.1599Z" fill="#D60018"/>
<path d="M29.9 19.8399H33.86V21.1599H29.9V19.8399Z" fill="#D60018"/>
<path d="M31.22 18.5199H35.18V19.8399H31.22V18.5199Z" fill="#D60018"/>
<path d="M32.54 17.1999H35.18L35.18 18.5199H32.54V17.1999Z" fill="#D60018"/>
<path d="M32.54 15.8799H35.18V17.1999H32.54V15.8799Z" fill="#D60018"/>
<path d="M32.54 14.5599H35.18V15.8799H32.54V14.5599Z" fill="#D60018"/>
<path d="M33.86 13.2399H35.18V14.5599L33.86 14.5599V13.2399Z" fill="#D60018"/>
<path d="M33.86 11.9199H35.18V13.2399H33.86V11.9199Z" fill="#D60018"/>
<path d="M10.1 25.1199H15.38V26.4399H10.1V25.1199Z" fill="#D60018"/>
<path d="M8.77998 23.7999H11.42V25.1199H8.77998V23.7999Z" fill="#D60018"/>
<path d="M7.45998 22.4799H10.1V23.7999H7.45998V22.4799Z" fill="#D60018"/>
<path d="M6.13998 21.1599H8.77998V22.4799H6.13998V21.1599Z" fill="#D60018"/>
<path d="M6.13998 19.8399H7.45998V21.1599H6.13998V19.8399Z" fill="#D60018"/>
<path d="M21.98 31.7199H23.3V33.0399H21.98V31.7199Z" fill="#D60018"/>
<path d="M18.02 31.7199H19.34V33.0399L18.02 33.0399V31.7199Z" fill="#D60018"/>
<path d="M16.7 31.7199H18.02V33.0399H16.7V31.7199Z" fill="#D60018"/>
<path d="M19.34 30.3999H20.66L20.66 31.7199H19.34L19.34 30.3999Z" fill="#D60018"/>
<path d="M20.66 30.3999H21.98L21.98 31.7199H20.66L20.66 30.3999Z" fill="#D60018"/>
<path d="M21.98 30.3999H23.3L23.3 31.7199H21.98L21.98 30.3999Z" fill="#D60018"/>
<path d="M23.3 30.3999H24.62V31.7199L23.3 31.7199L23.3 30.3999Z" fill="#D60018"/>
<path d="M18.02 30.3999H19.34L19.34 31.7199H18.02L18.02 30.3999Z" fill="#D60018"/>
<path d="M16.7 30.3999H18.02L18.02 31.7199H16.7L16.7 30.3999Z" fill="#D60018"/>
<path d="M15.38 30.3999L16.7 30.3999L16.7 31.7199H15.38V30.3999Z" fill="#D60018"/>
<path d="M19.1514 29.08H20.8486V30.4H19.1514V29.08Z" fill="#D60018"/>
<path d="M20.8486 29.08H22.5457V30.4H20.8486V29.08Z" fill="#D60018"/>
<path d="M22.5457 29.08H24.2428V30.4H22.5457V29.08Z" fill="#D60018"/>
<path d="M24.2428 29.08H25.94V30.4H24.2428V29.08Z" fill="#D60018"/>
<path d="M17.4543 29.08H19.1514V30.4H17.4543V29.08Z" fill="#D60018"/>
<path d="M15.7571 29.08H17.4543V30.4H15.7571V29.08Z" fill="#D60018"/>
<path d="M14.06 29.0799L15.7571 29.08V30.4L14.06 30.3999V29.0799Z" fill="#D60018"/>
<path d="M18.9629 27.7599H21.0372V29.0799H18.9629V27.7599Z" fill="#D60018"/>
<path d="M21.0372 27.7599H23.1114V29.0799H21.0372V27.7599Z" fill="#D60018"/>
<path d="M23.1114 27.7599H25.1858V29.0799H23.1114V27.7599Z" fill="#D60018"/>
<path d="M25.1858 27.7599H27.2599V29.0799H25.1858V27.7599Z" fill="#D60018"/>
<path d="M16.8885 27.7599H18.9629V29.0799H16.8885V27.7599Z" fill="#D60018"/>
<path d="M14.8144 27.7599H16.8885V29.0799H14.8144V27.7599Z" fill="#D60018"/>
<path d="M12.74 27.7599L14.8144 27.7599V29.0799L12.74 29.0799V27.7599Z" fill="#D60018"/>
<path d="M18.7744 26.44H21.2258V27.76H18.7744V26.44Z" fill="#D60018"/>
<path d="M21.2258 26.44H23.677V27.76H21.2258V26.44Z" fill="#D60018"/>
<path d="M23.677 26.44H26.1286V27.76H23.677V26.44Z" fill="#D60018"/>
<path d="M26.1286 26.44H28.5798V27.76H26.1286V26.44Z" fill="#D60018"/>
<path d="M16.3228 26.44H18.7744V27.76H16.3228V26.44Z" fill="#D60018"/>
<path d="M13.8716 26.44H16.3228V27.76H13.8716V26.44Z" fill="#D60018"/>
<path d="M11.42 26.4399L13.8716 26.44V27.76L11.42 27.7599V26.4399Z" fill="#D60018"/>
<path d="M15.38 25.1199H23.3V26.4399H15.38V25.1199Z" fill="#FF001D"/>
<path d="M15.38 25.1199H23.3V26.4399H15.38V25.1199Z" fill="#FF001D"/>
<path d="M11.42 23.7999H25.94V25.1199H11.42V23.7999Z" fill="#FF001D"/>
<path d="M10.1 22.4799H27.26V23.7999H10.1V22.4799Z" fill="#FF001D"/>
<path d="M8.78001 21.1599H28.58V22.4799H8.78001V21.1599Z" fill="#FF001D"/>
<path d="M7.46001 19.8399H29.9V21.1599H7.46001V19.8399Z" fill="#FF001D"/>
<path d="M7.46001 18.5199H31.22V19.8399L7.46001 19.8399V18.5199Z" fill="#FF001D"/>
<path d="M4.82001 17.1999H6.14001V18.5199H4.82001V17.1999Z" fill="#FF001D"/>
<path d="M4.82001 14.5599H7.46001V15.8799H4.82001V14.5599Z" fill="#FF001D"/>
<path d="M4.82001 13.2399H7.46001V14.5599H4.82001V13.2399Z" fill="#FF001D"/>
<path d="M4.82001 11.9199H7.46001V13.2399H4.82001V11.9199Z" fill="#FF001D"/>
<path d="M6.14001 10.5999H8.78001V11.9199H6.14001V10.5999Z" fill="#FF001D"/>
<path d="M6.14001 9.27989H8.78001V10.5999H6.14001V9.27989Z" fill="#FF001D"/>
<path d="M7.46001 7.95989H10.1V9.27989H7.46001V7.95989Z" fill="#FF001D"/>
<path d="M27.26 7.95989H32.54V9.27989H27.26V7.95989Z" fill="#FF001D"/>
<path d="M25.94 6.63989H29.9V7.95989H25.94V6.63989Z" fill="#FF001D"/>
<path d="M10.1 6.63989H15.38V7.95989H10.1L10.1 6.63989Z" fill="#FF001D"/>
<path d="M12.74 7.95989H18.02V9.27989H12.74V7.95989Z" fill="#FF001D"/>
<path d="M14.06 9.27989H19.34V10.5999H14.06V9.27989Z" fill="#FF001D"/>
<path d="M27.26 10.5999H33.86V11.9199H27.26V10.5999Z" fill="#FF001D"/>
<path d="M28.58 9.27989H33.86V10.5999L28.58 10.5999V9.27989Z" fill="#FF001D"/>
<path d="M11.42 10.5999H23.3V11.9199H11.42V10.5999Z" fill="#FF001D"/>
<path d="M11.42 11.9199H23.3V13.2399H11.42V11.9199Z" fill="#FF001D"/>
<path d="M21.98 13.2399H33.86V14.5599H21.98V13.2399Z" fill="#FF001D"/>
<path d="M10.1 13.2399H19.34V14.5599H10.1V13.2399Z" fill="#FF001D"/>
<path d="M25.94 11.9199L33.86 11.9199L33.86 13.2399H25.94V11.9199Z" fill="#FF001D"/>
<path d="M8.78001 14.5599H32.54V15.8799H8.78001V14.5599Z" fill="#FF001D"/>
<path d="M4.82001 18.5199H6.14001V19.8399H4.82001V18.5199Z" fill="#FF001D"/>
<path d="M7.46001 17.1999H32.54V18.5199H7.46001V17.1999Z" fill="#FF001D"/>
<path d="M4.82001 15.8799H32.54V17.1999H4.82001V15.8799Z" fill="#FF001D"/>
<path d="M24.62 6.63989H25.94V7.95989H24.62V6.63989Z" fill="#FF001D"/>
<path d="M21.98 7.95989H25.94L25.94 9.27989H21.98V7.95989Z" fill="#FF001D"/>
<path d="M20.66 9.27989H24.62V10.5999H20.66V9.27989Z" fill="#FF001D"/>
<path d="M6.13998 17.2H7.45998V19.84H6.13998V17.2Z" fill="white"/>
<path d="M8.77998 9.27996H10.1V14.56H8.77998V9.27996Z" fill="white"/>
<path d="M10.1 7.95996H11.42V13.24H10.1V7.95996Z" fill="white"/>
<path d="M11.42 7.95996H12.74V10.6H11.42L11.42 7.95996Z" fill="white"/>
<path d="M12.74 9.27996H14.06V10.6H12.74V9.27996Z" fill="white"/>
<path d="M19.34 13.24H21.98V14.56H19.34V13.24Z" fill="white"/>
<path d="M23.3 11.92H25.94V13.24H23.3V11.92Z" fill="white"/>
<path d="M23.3 10.6H27.26V11.92H23.3V10.6Z" fill="white"/>
<path d="M24.62 9.27996H28.58V10.6H24.62V9.27996Z" fill="white"/>
<path d="M25.94 7.95996H27.26V9.27996H25.94V7.95996Z" fill="white"/>
<path d="M7.45998 11.92H8.77998V15.88H7.45998V11.92Z" fill="white"/>
</svg>
